<svg xmlns="http://www.w3.org/2000/svg" class="icon" viewBox="0 0 1000 1000" width="1em" height="1em"><path transform="matrix(1, 0, 0, -1, 0, 850)" d="m 500 450 c -83 0 -150 -67 -150 -150 c 0 -83 67 -150 150 -150 c 83 0 150 67 150 150 c 0 83 -67 150 -150 150 Z m 400 150 h -120 c -16 0 -34 13 -39 29 l -31 93 c -6 15 -23 28 -40 28 h -340 c -16 0 -34 -13 -39 -28 l -31 -94 c -6 -15 -23 -28 -40 -28 h -120 c -55 0 -100 -45 -100 -100 v -450 c 0 -55 45 -100 100 -100 h 800 c 55 0 100 45 100 100 v 450 c 0 55 -45 100 -100 100 Z m -400 -550 c -138 0 -250 112 -250 250 c 0 138 112 250 250 250 c 138 0 250 -112 250 -250 c 0 -138 -112 -250 -250 -250 Z m 365 380 c -19 0 -35 16 -35 35 c 0 19 16 35 35 35 c 19 0 35 -16 35 -35 c 0 -19 -16 -35 -35 -35 Z"/></svg>